<svg width="40" height="40" viewBox="0 0 40 40" fill="none" xmlns="http://www.w3.org/2000/svg">
<path fill-rule="evenodd" clip-rule="evenodd" d="M24.5861 10.5856C24.9611 10.2106 25.4697 10 26.0001 10C26.5304 10 27.039 10.2106 27.4141 10.5856L35.4141 18.5856C35.789 18.9606 35.9996 19.4692 35.9996 19.9996C35.9996 20.5299 35.789 21.0385 35.4141 21.4136L27.4141 29.4136C27.0369 29.7779 26.5317 29.9795 26.0073 29.9749C25.4829 29.9704 24.9812 29.76 24.6104 29.3892C24.2396 29.0184 24.0293 28.5168 24.0247 27.9924C24.0202 27.468 24.2217 26.9628 24.5861 26.5856L29.1721 21.9996H6.00006C5.46963 21.9996 4.96092 21.7889 4.58585 21.4138C4.21077 21.0387 4.00006 20.53 4.00006 19.9996C4.00006 19.4691 4.21077 18.9604 4.58585 18.5854C4.96092 18.2103 5.46963 17.9996 6.00006 17.9996H29.1721L24.5861 13.4136C24.2111 13.0385 24.0005 12.5299 24.0005 11.9996C24.0005 11.4692 24.2111 10.9606 24.5861 10.5856V10.5856Z" fill="white"/>
</svg>
