<svg width="40" height="40" viewBox="0 0 40 40" fill="none" xmlns="http://www.w3.org/2000/svg">
<path fill-rule="evenodd" clip-rule="evenodd" d="M15.4141 29.4138C15.039 29.7888 14.5304 29.9994 14.0001 29.9994C13.4697 29.9994 12.9611 29.7888 12.5861 29.4138L4.58606 21.4138C4.21112 21.0388 4.00049 20.5302 4.00049 19.9998C4.00049 19.4695 4.21112 18.9609 4.58606 18.5858L12.5861 10.5858C12.9633 10.2215 13.4685 10.0199 13.9929 10.0245C14.5173 10.029 15.0189 10.2394 15.3897 10.6102C15.7605 10.981 15.9709 11.4826 15.9754 12.007C15.98 12.5314 15.7784 13.0366 15.4141 13.4138L10.8281 17.9998H34.0001C34.5305 17.9998 35.0392 18.2106 35.4143 18.5856C35.7894 18.9607 36.0001 19.4694 36.0001 19.9998C36.0001 20.5303 35.7894 21.039 35.4143 21.4141C35.0392 21.7891 34.5305 21.9998 34.0001 21.9998H10.8281L15.4141 26.5858C15.789 26.9609 15.9996 27.4695 15.9996 27.9998C15.9996 28.5302 15.789 29.0388 15.4141 29.4138Z" fill="white"/>
</svg>
