<svg width="48" height="48" viewBox="0 0 48 48" fill="none" xmlns="http://www.w3.org/2000/svg">
<rect width="48" height="48" rx="24" fill="#F3F4F6"/>
<path fill-rule="evenodd" clip-rule="evenodd" d="M12.8 15.9998C12.8 15.1511 13.1371 14.3372 13.7372 13.7371C14.3374 13.1369 15.1513 12.7998 16 12.7998H32C32.8487 12.7998 33.6626 13.1369 34.2627 13.7371C34.8628 14.3372 35.2 15.1511 35.2 15.9998V28.7998C35.2 29.6485 34.8628 30.4624 34.2627 31.0625C33.6626 31.6627 32.8487 31.9998 32 31.9998H28.448L28.6448 32.7822L29.9312 34.0686C30.1549 34.2924 30.3072 34.5774 30.3689 34.8878C30.4306 35.1981 30.3989 35.5197 30.2779 35.8121C30.1568 36.1044 29.9518 36.3542 29.6887 36.53C29.4257 36.7059 29.1164 36.7997 28.8 36.7998H19.2C18.8836 36.7997 18.5743 36.7059 18.3113 36.53C18.0482 36.3542 17.8432 36.1044 17.7221 35.8121C17.601 35.5197 17.5693 35.1981 17.6311 34.8878C17.6928 34.5774 17.8451 34.2924 18.0688 34.0686L19.3552 32.7822L19.552 31.9998H16C15.1513 31.9998 14.3374 31.6627 13.7372 31.0625C13.1371 30.4624 12.8 29.6485 12.8 28.7998V15.9998ZM22.0336 27.1998H16V15.9998H32V27.1998H22.0336Z" fill="#6B7280"/>
</svg>
