<svg width="48" height="48" viewBox="0 0 48 48" fill="none" xmlns="http://www.w3.org/2000/svg">
<rect width="48" height="48" rx="24" fill="#F3F4F6"/>
<path d="M24 27.1998C24.8487 27.1998 25.6626 26.8627 26.2627 26.2625C26.8628 25.6624 27.2 24.8485 27.2 23.9998C27.2 23.1511 26.8628 22.3372 26.2627 21.7371C25.6626 21.1369 24.8487 20.7998 24 20.7998C23.1513 20.7998 22.3374 21.1369 21.7372 21.7371C21.1371 22.3372 20.8 23.1511 20.8 23.9998C20.8 24.8485 21.1371 25.6624 21.7372 26.2625C22.3374 26.8627 23.1513 27.1998 24 27.1998Z" fill="#6B7280"/>
<path fill-rule="evenodd" clip-rule="evenodd" d="M8.73279 23.9998C10.7712 17.5086 16.8352 12.7998 24 12.7998C31.1648 12.7998 37.2288 17.5086 39.2672 23.9998C37.2288 30.491 31.1648 35.1998 24 35.1998C16.8352 35.1998 10.7712 30.491 8.73279 23.9998ZM30.4 23.9998C30.4 25.6972 29.7257 27.3251 28.5255 28.5253C27.3252 29.7255 25.6974 30.3998 24 30.3998C22.3026 30.3998 20.6747 29.7255 19.4745 28.5253C18.2743 27.3251 17.6 25.6972 17.6 23.9998C17.6 22.3024 18.2743 20.6746 19.4745 19.4743C20.6747 18.2741 22.3026 17.5998 24 17.5998C25.6974 17.5998 27.3252 18.2741 28.5255 19.4743C29.7257 20.6746 30.4 22.3024 30.4 23.9998V23.9998Z" fill="#6B7280"/>
</svg>
