<svg width="48" height="49" viewBox="0 0 48 49" fill="none" xmlns="http://www.w3.org/2000/svg">
<rect y="0.537109" width="48" height="48" rx="24" fill="#F3F4F6"/>
<path fill-rule="evenodd" clip-rule="evenodd" d="M12.8 13.3369C12.3756 13.3369 11.9686 13.5055 11.6686 13.8055C11.3685 14.1056 11.2 14.5126 11.2 14.9369C11.2 15.3613 11.3685 15.7682 11.6686 16.0683C11.9686 16.3683 12.3756 16.5369 12.8 16.5369V29.3369C12.8 30.1856 13.1371 30.9995 13.7372 31.5997C14.3373 32.1998 15.1513 32.5369 16 32.5369H20.1376L18.0688 34.6057C17.9159 34.7533 17.794 34.9299 17.7102 35.1251C17.6263 35.3203 17.5822 35.5302 17.5803 35.7427C17.5785 35.9551 17.619 36.1658 17.6994 36.3624C17.7799 36.5591 17.8987 36.7377 18.0489 36.8879C18.1991 37.0382 18.3778 37.157 18.5744 37.2374C18.7711 37.3179 18.9817 37.3584 19.1942 37.3565C19.4066 37.3547 19.6166 37.3105 19.8118 37.2267C20.007 37.1428 20.1836 37.0209 20.3312 36.8681L24 33.1993L27.6688 36.8681C27.9705 37.1596 28.3747 37.3208 28.7942 37.3172C29.2137 37.3135 29.615 37.1453 29.9117 36.8486C30.2083 36.552 30.3766 36.1507 30.3802 35.7312C30.3839 35.3116 30.2226 34.9075 29.9312 34.6057L27.8623 32.5369H32C32.8486 32.5369 33.6626 32.1998 34.2627 31.5997C34.8628 30.9995 35.1999 30.1856 35.1999 29.3369V16.5369C35.6243 16.5369 36.0313 16.3683 36.3313 16.0683C36.6314 15.7682 36.7999 15.3613 36.7999 14.9369C36.7999 14.5126 36.6314 14.1056 36.3313 13.8055C36.0313 13.5055 35.6243 13.3369 35.1999 13.3369H12.8ZM30.4 19.7369C30.4 19.3126 30.2314 18.9056 29.9313 18.6055C29.6313 18.3055 29.2243 18.1369 28.7999 18.1369C28.3756 18.1369 27.9686 18.3055 27.6686 18.6055C27.3685 18.9056 27.2 19.3126 27.2 19.7369V26.1369C27.2 26.5613 27.3685 26.9682 27.6686 27.2683C27.9686 27.5683 28.3756 27.7369 28.7999 27.7369C29.2243 27.7369 29.6313 27.5683 29.9313 27.2683C30.2314 26.9682 30.4 26.5613 30.4 26.1369V19.7369ZM25.6 21.3369C25.6 20.9126 25.4314 20.5056 25.1313 20.2055C24.8313 19.9055 24.4243 19.7369 24 19.7369C23.5756 19.7369 23.1686 19.9055 22.8686 20.2055C22.5685 20.5056 22.4 20.9126 22.4 21.3369V26.1369C22.4 26.5613 22.5685 26.9682 22.8686 27.2683C23.1686 27.5683 23.5756 27.7369 24 27.7369C24.4243 27.7369 24.8313 27.5683 25.1313 27.2683C25.4314 26.9682 25.6 26.5613 25.6 26.1369V21.3369ZM20.8 22.9369C20.8 22.5126 20.6314 22.1056 20.3313 21.8055C20.0313 21.5055 19.6243 21.3369 19.2 21.3369C18.7756 21.3369 18.3686 21.5055 18.0686 21.8055C17.7685 22.1056 17.6 22.5126 17.6 22.9369V26.1369C17.6 26.5613 17.7685 26.9682 18.0686 27.2683C18.3686 27.5683 18.7756 27.7369 19.2 27.7369C19.6243 27.7369 20.0313 27.5683 20.3313 27.2683C20.6314 26.9682 20.8 26.5613 20.8 26.1369V22.9369Z" fill="#6B7280"/>
</svg>
