<svg width="48" height="49" viewBox="0 0 48 49" fill="none" xmlns="http://www.w3.org/2000/svg">
<rect y="0.537109" width="48" height="48" rx="24" fill="#F3F4F6"/>
<path fill-rule="evenodd" clip-rule="evenodd" d="M17.6 11.7373C16.7513 11.7373 15.9374 12.0744 15.3373 12.6746C14.7372 13.2747 14.4 14.0886 14.4 14.9373V34.1373C14.4 34.986 14.7372 35.7999 15.3373 36.4C15.9374 37.0002 16.7513 37.3373 17.6 37.3373H30.4C31.2487 37.3373 32.0626 37.0002 32.6628 36.4C33.2629 35.7999 33.6 34.986 33.6 34.1373V20.3997C33.5998 19.5511 33.2626 18.7373 32.6624 18.1373L27.2 12.6749C26.6 12.0747 25.7862 11.7375 24.9376 11.7373H17.6ZM20.8 27.7373C20.8 27.313 20.6315 26.906 20.3314 26.6059C20.0313 26.3059 19.6244 26.1373 19.2 26.1373C18.7757 26.1373 18.3687 26.3059 18.0687 26.6059C17.7686 26.906 17.6 27.313 17.6 27.7373V32.5373C17.6 32.9616 17.7686 33.3686 18.0687 33.6687C18.3687 33.9687 18.7757 34.1373 19.2 34.1373C19.6244 34.1373 20.0313 33.9687 20.3314 33.6687C20.6315 33.3686 20.8 32.9616 20.8 32.5373V27.7373ZM24 22.9373C24.4244 22.9373 24.8313 23.1059 25.1314 23.4059C25.4315 23.706 25.6 24.113 25.6 24.5373V32.5373C25.6 32.9616 25.4315 33.3686 25.1314 33.6687C24.8313 33.9687 24.4244 34.1373 24 34.1373C23.5757 34.1373 23.1687 33.9687 22.8687 33.6687C22.5686 33.3686 22.4 32.9616 22.4 32.5373V24.5373C22.4 24.113 22.5686 23.706 22.8687 23.4059C23.1687 23.1059 23.5757 22.9373 24 22.9373ZM30.4 21.3373C30.4 20.913 30.2315 20.506 29.9314 20.2059C29.6313 19.9059 29.2244 19.7373 28.8 19.7373C28.3757 19.7373 27.9687 19.9059 27.6687 20.2059C27.3686 20.506 27.2 20.913 27.2 21.3373V32.5373C27.2 32.9616 27.3686 33.3686 27.6687 33.6687C27.9687 33.9687 28.3757 34.1373 28.8 34.1373C29.2244 34.1373 29.6313 33.9687 29.9314 33.6687C30.2315 33.3686 30.4 32.9616 30.4 32.5373V21.3373Z" fill="#6B7280"/>
</svg>
