<svg width="48" height="49" viewBox="0 0 48 49" fill="none" xmlns="http://www.w3.org/2000/svg">
<rect y="0.537109" width="48" height="48" rx="24" fill="#F3F4F6"/>
<path d="M11.2 24.5373C11.2 21.1425 12.5485 17.8868 14.949 15.4863C17.3494 13.0859 20.6052 11.7373 24 11.7373V24.5373H36.7999C36.7999 27.9321 35.4514 31.1878 33.0509 33.5883C30.6505 35.9887 27.3947 37.3373 24 37.3373C20.6052 37.3373 17.3494 35.9887 14.949 33.5883C12.5485 31.1878 11.2 27.9321 11.2 24.5373Z" fill="#6B7280"/>
<path d="M27.2 12.1401C29.4138 12.7137 31.4339 13.8689 33.051 15.4859C34.668 17.103 35.8232 19.1231 36.3967 21.3369H27.2V12.1401Z" fill="#6B7280"/>
</svg>
