<svg width="48" height="48" viewBox="0 0 48 48" fill="none" xmlns="http://www.w3.org/2000/svg">
<rect width="48" height="48" rx="24" fill="#F3F4F6"/>
<path fill-rule="evenodd" clip-rule="evenodd" d="M12.8 12.7998C12.3757 12.7998 11.9687 12.9684 11.6686 13.2684C11.3686 13.5685 11.2 13.9755 11.2 14.3998C11.2 14.8242 11.3686 15.2311 11.6686 15.5312C11.9687 15.8312 12.3757 15.9998 12.8 15.9998V28.7998C12.8 29.6485 13.1372 30.4624 13.7373 31.0625C14.3374 31.6627 15.1513 31.9998 16 31.9998H20.1376L18.0688 34.0686C17.916 34.2162 17.7941 34.3928 17.7102 34.588C17.6264 34.7832 17.5823 34.9931 17.5804 35.2056C17.5786 35.418 17.619 35.6287 17.6995 35.8253C17.7799 36.022 17.8988 36.2006 18.049 36.3508C18.1992 36.5011 18.3779 36.6199 18.5745 36.7003C18.7711 36.7808 18.9818 36.8213 19.1943 36.8194C19.4067 36.8176 19.6167 36.7734 19.8119 36.6896C20.0071 36.6057 20.1836 36.4838 20.3312 36.331L24 32.6622L27.6688 36.331C27.9706 36.6225 28.3747 36.7837 28.7943 36.7801C29.2138 36.7764 29.6151 36.6082 29.9117 36.3115C30.2084 36.0149 30.3766 35.6136 30.3803 35.194C30.3839 34.7745 30.2227 34.3704 29.9312 34.0686L27.8624 31.9998H32C32.8487 31.9998 33.6626 31.6627 34.2628 31.0625C34.8629 30.4624 35.2 29.6485 35.2 28.7998V15.9998C35.6244 15.9998 36.0313 15.8312 36.3314 15.5312C36.6314 15.2311 36.8 14.8242 36.8 14.3998C36.8 13.9755 36.6314 13.5685 36.3314 13.2684C36.0313 12.9684 35.6244 12.7998 35.2 12.7998H12.8ZM30.4 19.1998C30.4 18.7755 30.2314 18.3685 29.9314 18.0684C29.6313 17.7684 29.2244 17.5998 28.8 17.5998C28.3757 17.5998 27.9687 17.7684 27.6686 18.0684C27.3686 18.3685 27.2 18.7755 27.2 19.1998V25.5998C27.2 26.0242 27.3686 26.4311 27.6686 26.7312C27.9687 27.0312 28.3757 27.1998 28.8 27.1998C29.2244 27.1998 29.6313 27.0312 29.9314 26.7312C30.2314 26.4311 30.4 26.0242 30.4 25.5998V19.1998ZM25.6 20.7998C25.6 20.3755 25.4314 19.9685 25.1314 19.6684C24.8313 19.3684 24.4244 19.1998 24 19.1998C23.5757 19.1998 23.1687 19.3684 22.8686 19.6684C22.5686 19.9685 22.4 20.3755 22.4 20.7998V25.5998C22.4 26.0242 22.5686 26.4311 22.8686 26.7312C23.1687 27.0312 23.5757 27.1998 24 27.1998C24.4244 27.1998 24.8313 27.0312 25.1314 26.7312C25.4314 26.4311 25.6 26.0242 25.6 25.5998V20.7998ZM20.8 22.3998C20.8 21.9755 20.6314 21.5685 20.3314 21.2684C20.0313 20.9684 19.6244 20.7998 19.2 20.7998C18.7757 20.7998 18.3687 20.9684 18.0686 21.2684C17.7686 21.5685 17.6 21.9755 17.6 22.3998V25.5998C17.6 26.0242 17.7686 26.4311 18.0686 26.7312C18.3687 27.0312 18.7757 27.1998 19.2 27.1998C19.6244 27.1998 20.0313 27.0312 20.3314 26.7312C20.6314 26.4311 20.8 26.0242 20.8 25.5998V22.3998Z" fill="#6B7280"/>
</svg>
