<svg width="48" height="48" viewBox="0 0 48 48" fill="none" xmlns="http://www.w3.org/2000/svg">
<rect width="48" height="48" rx="24" fill="#F3F4F6"/>
<path d="M25.6 12.8002C25.6 12.3758 25.4314 11.9689 25.1313 11.6688C24.8313 11.3688 24.4243 11.2002 24 11.2002C23.5756 11.2002 23.1686 11.3688 22.8686 11.6688C22.5685 11.9689 22.4 12.3758 22.4 12.8002V14.4002C22.4 14.8245 22.5685 15.2315 22.8686 15.5316C23.1686 15.8316 23.5756 16.0002 24 16.0002C24.4243 16.0002 24.8313 15.8316 25.1313 15.5316C25.4314 15.2315 25.6 14.8245 25.6 14.4002V12.8002ZM33.0511 17.2114C33.3426 16.9096 33.5039 16.5055 33.5002 16.086C33.4966 15.6664 33.3283 15.2651 33.0317 14.9685C32.735 14.6718 32.3337 14.5036 31.9142 14.4999C31.4947 14.4963 31.0905 14.6575 30.7887 14.949L29.6576 16.0802C29.3661 16.382 29.2048 16.7861 29.2085 17.2056C29.2121 17.6252 29.3804 18.0265 29.677 18.3231C29.9737 18.6198 30.375 18.788 30.7945 18.7917C31.214 18.7953 31.6182 18.634 31.92 18.3426L33.0511 17.2114ZM36.7999 24.0002C36.7999 24.4245 36.6314 24.8315 36.3313 25.1316C36.0313 25.4316 35.6243 25.6002 35.1999 25.6002H33.5999C33.1756 25.6002 32.7686 25.4316 32.4686 25.1316C32.1685 24.8315 32 24.4245 32 24.0002C32 23.5758 32.1685 23.1689 32.4686 22.8688C32.7686 22.5688 33.1756 22.4002 33.5999 22.4002H35.1999C35.6243 22.4002 36.0313 22.5688 36.3313 22.8688C36.6314 23.1689 36.7999 23.5758 36.7999 24.0002ZM16.08 18.3426C16.2275 18.4954 16.4041 18.6173 16.5993 18.7012C16.7945 18.785 17.0045 18.8291 17.2169 18.831C17.4294 18.8328 17.64 18.7924 17.8367 18.7119C18.0333 18.6315 18.212 18.5127 18.3622 18.3624C18.5124 18.2122 18.6312 18.0336 18.7117 17.8369C18.7921 17.6403 18.8326 17.4296 18.8308 17.2172C18.8289 17.0047 18.7848 16.7948 18.7009 16.5995C18.6171 16.4043 18.4952 16.2278 18.3424 16.0802L17.2112 14.949C16.9094 14.6575 16.5052 14.4963 16.0857 14.4999C15.6662 14.5036 15.2649 14.6718 14.9682 14.9685C14.6716 15.2651 14.5033 15.6664 14.4997 16.086C14.496 16.5055 14.6573 16.9096 14.9488 17.2114L16.08 18.3426ZM16 24.0002C16 24.4245 15.8314 24.8315 15.5313 25.1316C15.2313 25.4316 14.8243 25.6002 14.4 25.6002H12.8C12.3756 25.6002 11.9686 25.4316 11.6686 25.1316C11.3685 24.8315 11.2 24.4245 11.2 24.0002C11.2 23.5758 11.3685 23.1689 11.6686 22.8688C11.9686 22.5688 12.3756 22.4002 12.8 22.4002H14.4C14.8243 22.4002 15.2313 22.5688 15.5313 22.8688C15.8314 23.1689 16 23.5758 16 24.0002ZM20.8 33.6002V32.0002H27.2V33.6002C27.2 34.4489 26.8628 35.2628 26.2627 35.8629C25.6626 36.4631 24.8486 36.8002 24 36.8002C23.1513 36.8002 22.3373 36.4631 21.7372 35.8629C21.1371 35.2628 20.8 34.4489 20.8 33.6002ZM27.2 30.4002C27.2239 29.8562 27.5328 29.3666 27.9632 29.0258C29.0074 28.2022 29.7692 27.0737 30.1426 25.7972C30.5159 24.5208 30.4824 23.1596 30.0465 21.9031C29.6106 20.6466 28.7941 19.5571 27.7105 18.786C26.6269 18.0149 25.3299 17.6006 24 17.6006C22.67 17.6006 21.373 18.0149 20.2894 18.786C19.2058 19.5571 18.3893 20.6466 17.9534 21.9031C17.5175 23.1596 17.484 24.5208 17.8573 25.7972C18.2307 27.0737 18.9925 28.2022 20.0367 29.0258C20.4688 29.3666 20.776 29.8562 20.7984 30.4002H27.2016H27.2Z" fill="#6B7280"/>
</svg>
