<svg width="146" height="34" viewBox="0 0 146 34" fill="none" xmlns="http://www.w3.org/2000/svg">
<path d="M2.83086 8.90613C2.59904 6.91857 4.02235 5.11941 6.00991 4.88759L23.644 2.83087C25.6316 2.59905 27.4307 4.02236 27.6625 6.00992L29.8871 25.0834C30.119 27.071 28.6957 28.8701 26.7081 29.102L9.074 31.1587C7.08645 31.3905 5.28729 29.9672 5.05547 27.9796L2.83086 8.90613Z" stroke="url(#paint0_linear_1795_1533)" stroke-width="4.34783"/>
<path d="M12.2238 27.2438L25.5307 25.6848C25.9272 25.6383 26.2114 25.28 26.1664 24.8834L24.3157 8.56341C24.2467 7.95517 23.5013 7.70118 23.0753 8.14075L15.513 15.9436C15.4454 16.0134 15.3925 16.0961 15.3574 16.1867L11.4636 26.2629C11.2669 26.7718 11.6819 27.3073 12.2238 27.2438Z" fill="url(#paint1_linear_1795_1533)"/>
<path d="M51.8089 14.1823H55.5589C55.0817 10.7305 52.039 8.30157 48.093 8.30157C43.4822 8.30157 39.9282 11.6254 39.9282 17.2845C39.9282 22.8073 43.2521 26.2334 48.1697 26.2334C52.576 26.2334 55.7209 23.4465 55.7209 18.8527V16.6538H48.4169V19.4323H52.1669C52.1157 21.597 50.6413 22.9692 48.1868 22.9692C45.4169 22.9692 43.6697 20.8982 43.6697 17.2504C43.6697 13.6198 45.4851 11.5658 48.1527 11.5658C50.0532 11.5658 51.3402 12.5459 51.8089 14.1823ZM62.0554 8.54021H58.4247V25.9948H62.0554V8.54021ZM68.6967 26.2419C70.6314 26.2419 71.8842 25.3982 72.5234 24.1794H72.6257V25.9948H76.0689V17.1652C76.0689 14.0459 73.4268 12.7334 70.5121 12.7334C67.3757 12.7334 65.3132 14.2334 64.8103 16.6198L68.1683 16.8925C68.4155 16.0232 69.191 15.384 70.495 15.384C71.7308 15.384 72.4382 16.0061 72.4382 17.08V17.1311C72.4382 17.9749 71.5433 18.0857 69.2677 18.3073C66.6768 18.5459 64.3501 19.4152 64.3501 22.3385C64.3501 24.9294 66.1996 26.2419 68.6967 26.2419ZM69.7365 23.7362C68.62 23.7362 67.8189 23.2163 67.8189 22.2192C67.8189 21.1965 68.6626 20.6936 69.941 20.5146C70.7336 20.4038 72.0291 20.2163 72.4638 19.9266V21.3158C72.4638 22.6879 71.3302 23.7362 69.7365 23.7362ZM89.7777 16.6368C89.4538 14.2249 87.5106 12.7334 84.2038 12.7334C80.8544 12.7334 78.647 14.2845 78.6555 16.8073C78.647 18.7675 79.8828 20.0374 82.4396 20.5487L84.7067 21.0004C85.8487 21.2305 86.3686 21.6482 86.3856 22.3044C86.3686 23.08 85.5248 23.634 84.2549 23.634C82.9595 23.634 82.0987 23.08 81.8771 22.0146L78.3061 22.2021C78.647 24.7078 80.7777 26.2504 84.2464 26.2504C87.6385 26.2504 90.0675 24.5203 90.076 21.9379C90.0675 20.0459 88.8317 18.9124 86.2919 18.3925L83.9226 17.9152C82.7038 17.651 82.2521 17.2334 82.2606 16.6027C82.2521 15.8186 83.1385 15.3073 84.2635 15.3073C85.5248 15.3073 86.2748 15.9976 86.4538 16.8413L89.7777 16.6368ZM103.254 16.6368C102.93 14.2249 100.987 12.7334 97.6804 12.7334C94.3309 12.7334 92.1236 14.2845 92.1321 16.8073C92.1236 18.7675 93.3594 20.0374 95.9162 20.5487L98.1832 21.0004C99.3253 21.2305 99.8451 21.6482 99.8622 22.3044C99.8451 23.08 99.0014 23.634 97.7315 23.634C96.4361 23.634 95.5753 23.08 95.3537 22.0146L91.7826 22.2021C92.1236 24.7078 94.2542 26.2504 97.723 26.2504C101.115 26.2504 103.544 24.5203 103.553 21.9379C103.544 20.0459 102.308 18.9124 99.7684 18.3925L97.3991 17.9152C96.1804 17.651 95.7287 17.2334 95.7372 16.6027C95.7287 15.8186 96.615 15.3073 97.74 15.3073C99.0014 15.3073 99.7514 15.9976 99.9304 16.8413L103.254 16.6368ZM122.243 8.54021V19.5601C122.243 21.5544 120.845 22.9948 118.697 22.9948C116.558 22.9948 115.152 21.5544 115.152 19.5601V8.54021H111.462V19.8754C111.462 23.6936 114.342 26.2419 118.697 26.2419C123.035 26.2419 125.933 23.6936 125.933 19.8754V8.54021H122.243ZM132.66 8.54021H128.969V25.9948H132.66V8.54021Z" fill="#111927"/>
<defs>
<linearGradient id="paint0_linear_1795_1533" x1="14.5751" y1="1.69995" x2="18.1429" y2="32.2896" gradientUnits="userSpaceOnUse">
<stop stop-color="#5EBB79"/>
<stop offset="1" stop-color="#00AB82"/>
</linearGradient>
<linearGradient id="paint1_linear_1795_1533" x1="25.281" y1="16.4027" x2="10.0446" y2="18.0041" gradientUnits="userSpaceOnUse">
<stop stop-color="#5BBB7A"/>
<stop offset="1" stop-color="#06AC82"/>
</linearGradient>
</defs>
</svg>
