<svg width="146" height="35" viewBox="0 0 146 35" fill="none" xmlns="http://www.w3.org/2000/svg">
<path d="M2.83086 9.4115C2.59904 7.42394 4.02235 5.62478 6.00991 5.39296L23.644 3.33624C25.6316 3.10442 27.4307 4.52773 27.6625 6.51529L29.8871 25.5888C30.119 27.5764 28.6957 29.3755 26.7081 29.6073L9.074 31.6641C7.08645 31.8959 5.28729 30.4726 5.05547 28.485L2.83086 9.4115Z" stroke="url(#paint0_linear_1789_7459)" stroke-width="4.34783"/>
<path d="M12.2238 27.7492L25.5307 26.1901C25.9272 26.1437 26.2114 25.7854 26.1664 25.3888L24.3157 9.06878C24.2467 8.46054 23.5013 8.20655 23.0753 8.64612L15.513 16.449C15.4454 16.5188 15.3925 16.6014 15.3574 16.6921L11.4636 26.7683C11.2669 27.2772 11.6819 27.8127 12.2238 27.7492Z" fill="url(#paint1_linear_1789_7459)"/>
<path d="M51.8089 14.6875H55.5589C55.0817 11.2358 52.039 8.80682 48.093 8.80682C43.4822 8.80682 39.9282 12.1307 39.9282 17.7898C39.9282 23.3125 43.2521 26.7386 48.1697 26.7386C52.576 26.7386 55.7209 23.9517 55.7209 19.358V17.1591H48.4169V19.9375H52.1669C52.1157 22.1023 50.6413 23.4744 48.1868 23.4744C45.4169 23.4744 43.6697 21.4034 43.6697 17.7557C43.6697 14.125 45.4851 12.071 48.1527 12.071C50.0532 12.071 51.3402 13.0511 51.8089 14.6875ZM62.0554 9.04545H58.4247V26.5H62.0554V9.04545ZM68.6967 26.7472C70.6314 26.7472 71.8842 25.9034 72.5234 24.6847H72.6257V26.5H76.0689V17.6705C76.0689 14.5511 73.4268 13.2386 70.5121 13.2386C67.3757 13.2386 65.3132 14.7386 64.8103 17.125L68.1683 17.3977C68.4155 16.5284 69.191 15.8892 70.495 15.8892C71.7308 15.8892 72.4382 16.5114 72.4382 17.5852V17.6364C72.4382 18.4801 71.5433 18.5909 69.2677 18.8125C66.6768 19.0511 64.3501 19.9205 64.3501 22.8438C64.3501 25.4347 66.1996 26.7472 68.6967 26.7472ZM69.7365 24.2415C68.62 24.2415 67.8189 23.7216 67.8189 22.7244C67.8189 21.7017 68.6626 21.1989 69.941 21.0199C70.7336 20.9091 72.0291 20.7216 72.4638 20.4318V21.821C72.4638 23.1932 71.3302 24.2415 69.7365 24.2415ZM89.7777 17.142C89.4538 14.7301 87.5106 13.2386 84.2038 13.2386C80.8544 13.2386 78.647 14.7898 78.6555 17.3125C78.647 19.2727 79.8828 20.5426 82.4396 21.054L84.7067 21.5057C85.8487 21.7358 86.3686 22.1534 86.3856 22.8097C86.3686 23.5852 85.5248 24.1392 84.2549 24.1392C82.9595 24.1392 82.0987 23.5852 81.8771 22.5199L78.3061 22.7074C78.647 25.2131 80.7777 26.7557 84.2464 26.7557C87.6385 26.7557 90.0675 25.0256 90.076 22.4432C90.0675 20.5511 88.8317 19.4176 86.2919 18.8977L83.9226 18.4205C82.7038 18.1562 82.2521 17.7386 82.2606 17.108C82.2521 16.3239 83.1385 15.8125 84.2635 15.8125C85.5248 15.8125 86.2748 16.5028 86.4538 17.3466L89.7777 17.142ZM103.254 17.142C102.93 14.7301 100.987 13.2386 97.6804 13.2386C94.3309 13.2386 92.1236 14.7898 92.1321 17.3125C92.1236 19.2727 93.3594 20.5426 95.9162 21.054L98.1832 21.5057C99.3253 21.7358 99.8451 22.1534 99.8622 22.8097C99.8451 23.5852 99.0014 24.1392 97.7315 24.1392C96.4361 24.1392 95.5753 23.5852 95.3537 22.5199L91.7826 22.7074C92.1236 25.2131 94.2542 26.7557 97.723 26.7557C101.115 26.7557 103.544 25.0256 103.553 22.4432C103.544 20.5511 102.308 19.4176 99.7684 18.8977L97.3991 18.4205C96.1804 18.1562 95.7287 17.7386 95.7372 17.108C95.7287 16.3239 96.615 15.8125 97.74 15.8125C99.0014 15.8125 99.7514 16.5028 99.9304 17.3466L103.254 17.142ZM122.243 9.04545V20.0653C122.243 22.0597 120.845 23.5 118.697 23.5C116.558 23.5 115.152 22.0597 115.152 20.0653V9.04545H111.462V20.3807C111.462 24.1989 114.342 26.7472 118.697 26.7472C123.035 26.7472 125.933 24.1989 125.933 20.3807V9.04545H122.243ZM132.66 9.04545H128.969V26.5H132.66V9.04545Z" fill="white"/>
<defs>
<linearGradient id="paint0_linear_1789_7459" x1="14.5751" y1="2.20533" x2="18.1429" y2="32.795" gradientUnits="userSpaceOnUse">
<stop stop-color="#5EBB79"/>
<stop offset="1" stop-color="#00AB82"/>
</linearGradient>
<linearGradient id="paint1_linear_1789_7459" x1="25.281" y1="16.9081" x2="10.0446" y2="18.5095" gradientUnits="userSpaceOnUse">
<stop stop-color="#5BBB7A"/>
<stop offset="1" stop-color="#06AC82"/>
</linearGradient>
</defs>
</svg>
