<svg width="24" height="25" viewBox="0 0 24 25" fill="none" xmlns="http://www.w3.org/2000/svg">
<path d="M11.7188 3.9895C6.90234 3.9895 3 7.927 3 12.7083C3 17.5247 6.90234 21.427 11.7188 21.427C16.5 21.427 20.4375 17.5247 20.4375 12.7083C20.4375 7.927 16.5 3.9895 11.7188 3.9895ZM17.4492 8.03247C18.5039 9.2981 19.1367 10.9153 19.1367 12.6731C18.8906 12.6028 16.4297 12.1106 13.9688 12.427C13.7578 11.9348 13.582 11.5129 13.3008 10.9504C16.0781 9.82544 17.3086 8.24341 17.4492 8.03247ZM16.6406 7.15356C16.5 7.3645 15.375 8.87622 12.7383 9.8606C11.5078 7.6106 10.1719 5.78247 9.96094 5.50122C12.3164 4.93872 14.8125 5.53638 16.6406 7.15356ZM8.51953 5.99341C8.73047 6.27466 10.0664 8.10278 11.2969 10.3176C7.81641 11.2317 4.75781 11.2317 4.40625 11.1965C4.89844 8.91138 6.44531 6.97778 8.51953 5.99341ZM4.26562 12.7434C4.26562 12.6731 4.26562 12.6028 4.26562 12.4973C4.58203 12.5325 8.20312 12.5676 11.8945 11.4426C12.1406 11.8645 12.3164 12.2864 12.5273 12.7083C9.82031 13.4817 7.35938 15.6614 6.16406 17.7004C4.96875 16.3997 4.26562 14.6418 4.26562 12.7434ZM7.11328 18.6145C7.92188 17.0325 10.0312 14.9583 13.0195 13.9387C14.0742 16.6458 14.4961 18.9309 14.6016 19.5989C12.2109 20.6184 9.32812 20.3372 7.11328 18.6145ZM15.8672 18.8958C15.7969 18.4739 15.375 16.2942 14.4258 13.5872C16.7461 13.2356 18.7852 13.8333 19.0664 13.9036C18.7148 15.9778 17.5195 17.7708 15.8672 18.8958Z" fill="black"/>
</svg>
