<svg width="24" height="25" viewBox="0 0 24 25" fill="none" xmlns="http://www.w3.org/2000/svg">
<path d="M19.1367 9.6106C19.8398 9.08325 20.4727 8.45044 20.9648 7.71216C20.332 7.99341 19.5938 8.20435 18.8555 8.27466C19.6289 7.81763 20.1914 7.1145 20.4727 6.2356C19.7695 6.65747 18.9609 6.97388 18.1523 7.14966C17.4492 6.41138 16.5 5.9895 15.4453 5.9895C13.4062 5.9895 11.7539 7.64185 11.7539 9.68091C11.7539 9.96216 11.7891 10.2434 11.8594 10.5247C8.80078 10.3489 6.05859 8.87231 4.23047 6.65747C3.91406 7.18481 3.73828 7.81763 3.73828 8.52075C3.73828 9.78638 4.37109 10.9114 5.39062 11.5793C4.79297 11.5442 4.19531 11.4036 3.70312 11.1223V11.1575C3.70312 12.9504 4.96875 14.427 6.65625 14.7786C6.375 14.8489 6.02344 14.9192 5.70703 14.9192C5.46094 14.9192 5.25 14.884 5.00391 14.8489C5.46094 16.3254 6.83203 17.3801 8.44922 17.4153C7.18359 18.3997 5.60156 18.9973 3.87891 18.9973C3.5625 18.9973 3.28125 18.9622 3 18.927C4.61719 19.9817 6.55078 20.5793 8.66016 20.5793C15.4453 20.5793 19.1367 14.9895 19.1367 10.1028C19.1367 9.927 19.1367 9.78638 19.1367 9.6106Z" fill="black"/>
</svg>
