<svg width="24" height="25" viewBox="0 0 24 25" fill="none" xmlns="http://www.w3.org/2000/svg">
<path d="M8.80078 17.7004C8.80078 17.6301 8.73047 17.5598 8.625 17.5598C8.51953 17.5598 8.44922 17.6301 8.44922 17.7004C8.44922 17.7708 8.51953 17.8411 8.625 17.8059C8.73047 17.8059 8.80078 17.7708 8.80078 17.7004ZM7.71094 17.5247C7.71094 17.595 7.78125 17.7004 7.88672 17.7004C7.95703 17.7356 8.0625 17.7004 8.09766 17.6301C8.09766 17.5598 8.0625 17.4895 7.95703 17.4543C7.85156 17.4192 7.74609 17.4543 7.71094 17.5247ZM9.29297 17.4895C9.1875 17.4895 9.11719 17.5598 9.11719 17.6653C9.11719 17.7356 9.22266 17.7708 9.32812 17.7356C9.43359 17.7004 9.50391 17.6653 9.46875 17.595C9.46875 17.5247 9.36328 17.4543 9.29297 17.4895ZM11.5781 3.9895C6.72656 3.9895 3 7.71606 3 12.5676C3 16.47 5.42578 19.8098 8.94141 21.0051C9.39844 21.0754 9.53906 20.7942 9.53906 20.5833C9.53906 20.3372 9.53906 19.1418 9.53906 18.4036C9.53906 18.4036 7.07812 18.9309 6.55078 17.3489C6.55078 17.3489 6.16406 16.3293 5.60156 16.0833C5.60156 16.0833 4.79297 15.5208 5.63672 15.5208C5.63672 15.5208 6.51562 15.5911 7.00781 16.4348C7.78125 17.8059 9.04688 17.4192 9.57422 17.1731C9.64453 16.6106 9.85547 16.2239 10.1367 15.9778C8.16797 15.7668 6.16406 15.4856 6.16406 12.1106C6.16406 11.1262 6.44531 10.6692 7.00781 10.0364C6.90234 9.79028 6.62109 8.87622 7.11328 7.64575C7.81641 7.43481 9.53906 8.59497 9.53906 8.59497C10.2422 8.38403 10.9805 8.31372 11.7188 8.31372C12.4922 8.31372 13.2305 8.38403 13.9336 8.59497C13.9336 8.59497 15.6211 7.39966 16.3594 7.64575C16.8516 8.87622 16.5352 9.79028 16.4648 10.0364C17.0273 10.6692 17.3789 11.1262 17.3789 12.1106C17.3789 15.4856 15.3047 15.7668 13.3359 15.9778C13.6523 16.259 13.9336 16.7864 13.9336 17.6301C13.9336 18.7903 13.8984 20.2668 13.8984 20.5481C13.8984 20.7942 14.0742 21.0754 14.5312 20.97C18.0469 19.8098 20.4375 16.47 20.4375 12.5676C20.4375 7.71606 16.4648 3.9895 11.5781 3.9895ZM6.41016 16.1184C6.33984 16.1536 6.375 16.259 6.41016 16.3293C6.48047 16.3645 6.55078 16.3997 6.62109 16.3645C6.65625 16.3293 6.65625 16.2239 6.58594 16.1536C6.51562 16.1184 6.44531 16.0833 6.41016 16.1184ZM6.02344 15.8372C5.98828 15.9075 6.02344 15.9426 6.09375 15.9778C6.16406 16.0129 6.23438 16.0129 6.26953 15.9426C6.26953 15.9075 6.23438 15.8723 6.16406 15.8372C6.09375 15.802 6.05859 15.802 6.02344 15.8372ZM7.14844 17.1028C7.11328 17.1379 7.11328 17.2434 7.21875 17.3137C7.28906 17.384 7.39453 17.4192 7.42969 17.3489C7.46484 17.3137 7.46484 17.2083 7.39453 17.1379C7.32422 17.0676 7.21875 17.0325 7.14844 17.1028ZM6.76172 16.5754C6.69141 16.6106 6.69141 16.7161 6.76172 16.7864C6.83203 16.8567 6.90234 16.8918 6.97266 16.8567C7.00781 16.8215 7.00781 16.7161 6.97266 16.6458C6.90234 16.5754 6.83203 16.5403 6.76172 16.5754Z" fill="black"/>
</svg>
