<svg width="37" height="36" viewBox="0 0 37 36" fill="none" xmlns="http://www.w3.org/2000/svg">
<path fill-rule="evenodd" clip-rule="evenodd" d="M18.5 32.4001C22.3191 32.4001 25.9818 30.883 28.6823 28.1824C31.3828 25.4819 32.9 21.8192 32.9 18.0001C32.9 14.181 31.3828 10.5183 28.6823 7.81776C25.9818 5.11724 22.3191 3.6001 18.5 3.6001C14.6809 3.6001 11.0182 5.11724 8.31764 7.81776C5.61711 10.5183 4.09998 14.181 4.09998 18.0001C4.09998 21.8192 5.61711 25.4819 8.31764 28.1824C11.0182 30.883 14.6809 32.4001 18.5 32.4001ZM17.699 12.9025C17.4279 12.7216 17.1128 12.6178 16.7873 12.6019C16.4618 12.5861 16.1381 12.659 15.8508 12.8127C15.5635 12.9665 15.3233 13.1953 15.1558 13.4749C14.9883 13.7544 14.8999 14.0742 14.9 14.4001V21.6001C14.8999 21.926 14.9883 22.2458 15.1558 22.5253C15.3233 22.8049 15.5635 23.0337 15.8508 23.1875C16.1381 23.3412 16.4618 23.4141 16.7873 23.3982C17.1128 23.3824 17.4279 23.2786 17.699 23.0977L23.099 19.4977C23.3455 19.3333 23.5476 19.1106 23.6874 18.8494C23.8272 18.5881 23.9004 18.2964 23.9004 18.0001C23.9004 17.7038 23.8272 17.4121 23.6874 17.1508C23.5476 16.8896 23.3455 16.6669 23.099 16.5025L17.699 12.9025Z" fill="white"/>
</svg>
