<svg width="48" height="48" viewBox="0 0 48 48" fill="none" xmlns="http://www.w3.org/2000/svg">
<rect width="48" height="48" rx="24" fill="#F3F4F6"/>
<path d="M28.8 19.2002H19.2V28.8002H28.8V19.2002Z" fill="#6B7280"/>
<path fill-rule="evenodd" clip-rule="evenodd" d="M19.2 11.2001C19.2 10.7758 19.3685 10.3688 19.6686 10.0687C19.9687 9.76867 20.3756 9.6001 20.8 9.6001C21.2243 9.6001 21.6313 9.76867 21.9313 10.0687C22.2314 10.3688 22.4 10.7758 22.4 11.2001V12.8001H25.6V11.2001C25.6 10.7758 25.7685 10.3688 26.0686 10.0687C26.3687 9.76867 26.7756 9.6001 27.2 9.6001C27.6243 9.6001 28.0313 9.76867 28.3313 10.0687C28.6314 10.3688 28.8 10.7758 28.8 11.2001V12.8001H32C32.8487 12.8001 33.6626 13.1372 34.2627 13.7374C34.8628 14.3375 35.2 15.1514 35.2 16.0001V19.2001H36.8C37.2243 19.2001 37.6313 19.3687 37.9313 19.6687C38.2314 19.9688 38.4 20.3758 38.4 20.8001C38.4 21.2244 38.2314 21.6314 37.9313 21.9315C37.6313 22.2315 37.2243 22.4001 36.8 22.4001H35.2V25.6001H36.8C37.2243 25.6001 37.6313 25.7687 37.9313 26.0687C38.2314 26.3688 38.4 26.7758 38.4 27.2001C38.4 27.6244 38.2314 28.0314 37.9313 28.3315C37.6313 28.6315 37.2243 28.8001 36.8 28.8001H35.2V32.0001C35.2 32.8488 34.8628 33.6627 34.2627 34.2628C33.6626 34.863 32.8487 35.2001 32 35.2001H28.8V36.8001C28.8 37.2244 28.6314 37.6314 28.3313 37.9315C28.0313 38.2315 27.6243 38.4001 27.2 38.4001C26.7756 38.4001 26.3687 38.2315 26.0686 37.9315C25.7685 37.6314 25.6 37.2244 25.6 36.8001V35.2001H22.4V36.8001C22.4 37.2244 22.2314 37.6314 21.9313 37.9315C21.6313 38.2315 21.2243 38.4001 20.8 38.4001C20.3756 38.4001 19.9687 38.2315 19.6686 37.9315C19.3685 37.6314 19.2 37.2244 19.2 36.8001V35.2001H16C15.1513 35.2001 14.3373 34.863 13.7372 34.2628C13.1371 33.6627 12.8 32.8488 12.8 32.0001V28.8001H11.2C10.7756 28.8001 10.3687 28.6315 10.0686 28.3315C9.76855 28.0314 9.59998 27.6244 9.59998 27.2001C9.59998 26.7758 9.76855 26.3688 10.0686 26.0687C10.3687 25.7687 10.7756 25.6001 11.2 25.6001H12.8V22.4001H11.2C10.7756 22.4001 10.3687 22.2315 10.0686 21.9315C9.76855 21.6314 9.59998 21.2244 9.59998 20.8001C9.59998 20.3758 9.76855 19.9688 10.0686 19.6687C10.3687 19.3687 10.7756 19.2001 11.2 19.2001H12.8V16.0001C12.8 15.1514 13.1371 14.3375 13.7372 13.7374C14.3373 13.1372 15.1513 12.8001 16 12.8001H19.2V11.2001ZM16 16.0001H32V32.0001H16V16.0001Z" fill="#6B7280"/>
</svg>
