<svg width="16" height="16" viewBox="0 0 16 16" fill="none" xmlns="http://www.w3.org/2000/svg">
<path fill-rule="evenodd" clip-rule="evenodd" d="M8.23438 2.63462C8.3844 2.48464 8.58784 2.40039 8.79998 2.40039C9.01211 2.40039 9.21555 2.48464 9.36557 2.63462L14.1656 7.43462C14.3156 7.58464 14.3998 7.78809 14.3998 8.00022C14.3998 8.21235 14.3156 8.4158 14.1656 8.56582L9.36557 13.3658C9.21469 13.5115 9.01261 13.5922 8.80285 13.5904C8.5931 13.5885 8.39245 13.5044 8.24412 13.3561C8.09579 13.2077 8.01166 13.0071 8.00984 12.7973C8.00801 12.5876 8.08865 12.3855 8.23438 12.2346L11.6688 8.80022H2.39998C2.1878 8.80022 1.98432 8.71593 1.83429 8.5659C1.68426 8.41588 1.59998 8.21239 1.59998 8.00022C1.59998 7.78805 1.68426 7.58456 1.83429 7.43453C1.98432 7.2845 2.1878 7.20022 2.39998 7.20022H11.6688L8.23438 3.76582C8.0844 3.6158 8.00015 3.41235 8.00015 3.20022C8.00015 2.98809 8.0844 2.78464 8.23438 2.63462Z" fill="#111927"/>
</svg>
